{"title":"The Fifth Element.(R).BD9.1080[)(]Dolby Atmos-5.1-(FR).iso","uid":12797316,"size":8489336832,"categoryP":"video","categoryS":"hd___movies","magnet":"?xt=urn:btih:52680fd5ac0eb4f7362ef873f92dd04334b520d5&amp;dn=The+Fifth+Element.%28R%29.BD9.1080%5B%29%28%5DDolby+Atmos-5.1-%28FR%29.iso&amp;tr=udp%3A%2F%2Ftracker.leechers-paradise.org%3A6969&amp;tr=udp%3A%2F%2Fzer0day.ch%3A1337&amp;tr=udp%3A%2F%2Fopen.demonii.com%3A1337&amp;tr=udp%3A%2F%2Ftracker.coppersurfer.tk%3A6969&amp;tr=udp%3A%2F%2Fexodus.desync.com%3A6969","seeders":0,"leechers":3,"uploader":"Tyr3ll","files":1,"time":1447989845,"description":"The Fifth Element.(R).BD9.1080[)(]Dolby Atmos-5.1-(FR).iso\r\n\r\nParticularity : The (R)in the title means Remastered Edition to Dolby Atmos.\r\n\r\nSee imdb right here : \nhttp://www.imdb.com/title/tt0119116/\r\n\r\nSource : BD50 Remux from original BD50 Import (Special thanks to Jeff)\r\n\r\nGeneral/Final purpose : reconversion to custom BD9 ISO output \r\n\r\nTechnical Method : CPU + CUDA GPU \r\n\r\nVideo codec : AVC/x264 + Cud.h264/Simple-pass\r\n\r\nAudio codec : untouched aka Ac3.TrueHD-5.1 Dolby Atmos\r\n\r\nLanguage : French only\r\n\r\nSub : none\r\n\r\nFormat : provided and delivered as custom BD9 ISO in 100% working order\r\n\r\nBurn Ready : yes \r\n\r\nFinal size : 7,90 Go\r\n\r\nQuality : Normal\r\n\r\n\r\n------------------------------------------------------------------------\r\n\r\n\r\nSee below for complete details :\r\n\r\n\r\nGeneral\r\nID                             : N/A\r\nComplete name                  : \r\n\r\nFormat                         : BDAV\r\nFormat/Info                    : Blu-ray Video\r\nFile size                      : 7.90 GiB\r\nDuration                       : 2h 5mn\r\nOverall bit rate mode          : Variable\r\nOverall bit rate               : 8 988 Kbps\r\nMaximum Overall bit rate       : 48.0 Mbps\r\n\r\nVideo\r\nID                             : 4113 (0x1011)\r\nMenu ID                        : 1 (0x1)\r\nFormat                         : AVC\r\nFormat/Info                    : Advanced Video Codec\r\nFormat profile                 :   \r\nFormat settings, CABAC         : Yes\r\nFormat settings, ReFrames      : 2 frames\r\nCodec ID                       : 27\r\nDuration                       : 2h 5mn\r\nBit rate mode                  : Variable\r\nBit rate                       : 7 983 Kbps\r\nNominal bit rate               : 5 233 Kbps\r\nMaximum bit rate               : 17.5 Mbps\r\nWidth                          : 1 920 pixels\r\nHeight                         : 1 080 pixels\r\nDisplay aspect ratio           : 16:9\r\nFrame rate                     : 23.976 fps\r\nColor space                    : YUV\r\nChroma subsampling             : 4:2:0\r\nBit depth                      : 8 bits\r\nScan type                      : Progressive\r\nBits/(Pixel*Frame)             : 0.161\r\nStream size                    : 7.02 GiB (89%)\r\n\r\nWriting library                : x264 core 142\r\n\r\nEncoding settings              : cabac=1 / ref=1 / deblock=1:-1:-1 / analyse=0x3:0x112 / me=dia / subme=1 / psy=0 / mixed_ref=0 / me_range=12 / chroma_me=1 / trellis=0 / 8x8dct=1 / cqm=0 / deadzone=21,11 / fast_pskip=1 / chroma_qp_offset=0 / threads=8 / lookahead_threads=4 / sliced_threads=0 / nr=0 / decimate=1 / interlaced=0 / bluray_compat=0 / constrained_intra=0 / bframes=5 / b_pyramid=0 / b_adapt=2 / b_bias=0 / direct=3 / weightb=1 / open_gop=0 / weightp=0 / keyint=1000 / keyint_min=2 / scenecut=40 / intra_refresh=0 / rc_lookahead=40 / rc=abr / mbtree=0 / bitrate=5233 / ratetol=1.0 / qcomp=0.50 / qpmin=0 / qpmax=69 / qpstep=4 / vbv_maxrate=17500 / vbv_bufsize=14500 / nal_hrd=vbr / filler=0 / ip_ratio=1.10 / pb_ratio=1.10 / aq=1:1.00\r\n\r\nColor range                    : Limited\r\nColor primaries                : BT.709\r\nTransfer characteristics       : BT.709\r\nMatrix coefficients            : BT.709\r\n\r\nAudio\r\nID                             : 4352 (0x1100)\r\nMenu ID                        : 1 (0x1)\r\nFormat                         : TrueHD / AC-3\r\nMode extension                 : CM (complete main)\r\nFormat settings, Endianness    : Big\r\nMuxing mode                    : Stream extension\r\nCodec ID                       : 131\r\nDuration                       : 2h 5mn\r\nBit rate mode                  : Variable / Constant\r\nBit rate                       : 640 Kbps\r\nMaximum bit rate               : 3 261 Kbps\r\nChannel(s)                     : 6 channels\r\nChannel positions              : Front: L C R, Side: L R, LFE\r\nSampling rate                  : 48.0 KHz\r\nStream size                    : 576 MiB (7%)\r\n\r\n\r\n\r\nEnjoy and have fun\r\n\r\nPlease, stay for seeding with me as long as you can for all other peers.\r\n\r\nTy for your understanding and best regards","torrent":{"xt":"urn:btih:52680fd5ac0eb4f7362ef873f92dd04334b520d5","amp;dn":"The+Fifth+Element.%28R%29.BD9.1080%5B%29%28%5DDolby+Atmos-5.1-%28FR%29.iso","amp;tr":["udp%3A%2F%2Ftracker.leechers-paradise.org%3A6969","udp%3A%2F%2Fzer0day.ch%3A1337","udp%3A%2F%2Fopen.demonii.com%3A1337","udp%3A%2F%2Ftracker.coppersurfer.tk%3A6969","udp%3A%2F%2Fexodus.desync.com%3A6969"],"infoHash":"52680fd5ac0eb4f7362ef873f92dd04334b520d5","infoHashBuffer":{"type":"Buffer","data":[82,104,15,213,172,14,180,247,54,46,248,115,249,45,208,67,52,181,32,213]},"announce":[],"urlList":[]}}